<svg width="64" height="64" viewBox="0 0 64 64" fill="none" xmlns="http://www.w3.org/2000/svg">
<g clip-path="url(#clip0_426_1136)">
<circle cx="32" cy="32" r="32" fill="#D9D9D9"/>
<path d="M42.0655 33.1534C42.1171 38.7346 46.9622 40.5922 47.0156 40.6159C46.9746 40.7465 46.2416 43.2628 44.4634 45.8614C42.9261 48.1081 41.3304 50.3466 38.8174 50.3935C36.348 50.4386 35.5538 48.9287 32.7303 48.9287C29.9076 48.9287 29.0256 50.3466 26.6877 50.4386C24.2616 50.5306 22.4142 48.0087 20.8642 45.7706C17.6971 41.1916 15.2767 32.8313 18.5266 27.188C20.141 24.3855 23.0266 22.611 26.1583 22.5653C28.5405 22.5199 30.789 24.1678 32.2452 24.1678C33.7004 24.1678 36.4329 22.1859 39.3054 22.4768C40.5081 22.527 43.8836 22.9625 46.051 26.1355C45.8768 26.2439 42.0236 28.4871 42.0655 33.1534ZM37.4244 19.4478C38.7123 17.8889 39.5792 15.7182 39.3429 13.559C37.4862 13.6335 35.2412 14.7961 33.9097 16.3544C32.7163 17.734 31.6713 19.9427 31.953 22.0591C34.0226 22.2195 36.1363 21.0076 37.4244 19.4478Z" fill="black"/>
</g>
<defs>
<clipPath id="clip0_426_1136">
<rect width="64" height="64" fill="white"/>
</clipPath>
</defs>
</svg>
