<svg width="49" height="48" viewBox="0 0 49 48" fill="none" xmlns="http://www.w3.org/2000/svg">
<path fill-rule="evenodd" clip-rule="evenodd" d="M42.1267 14.24L41.8467 13.74C41.4855 13.1354 40.9761 12.6329 40.3667 12.28L26.9467 4.54C26.3391 4.1875 25.6493 4.00124 24.9467 4H24.3667C23.6641 4.00124 22.9743 4.1875 22.3667 4.54L8.94669 12.3C8.34063 12.6505 7.83721 13.1539 7.48669 13.76L7.20669 14.26C6.85419 14.8677 6.66793 15.5575 6.66669 16.26V31.76C6.66793 32.4626 6.85419 33.1524 7.20669 33.76L7.48669 34.26C7.84627 34.859 8.34767 35.3604 8.94669 35.72L22.3867 43.46C22.9913 43.8198 23.6831 44.0066 24.3867 44H24.9467C25.6493 43.9988 26.3391 43.8126 26.9467 43.46L40.3667 35.7C40.9787 35.3574 41.4841 34.852 41.8267 34.24L42.1267 33.74C42.4749 33.1306 42.6609 32.442 42.6667 31.74V16.24C42.6655 15.5375 42.4793 14.8477 42.1267 14.24ZM24.3667 8H24.9467L36.6667 14.76L24.6667 21.68L12.6667 14.76L24.3667 8ZM26.6667 39L38.3667 32.24L38.6667 31.74V18.22L26.6667 25.16V39Z" fill="#2D338F"/>
</svg>
