<svg width="31" height="18" viewBox="0 0 31 18" fill="none" xmlns="http://www.w3.org/2000/svg">
<path d="M1.87505 0.179491C1.37253 -0.108784 0.642916 -0.041989 0.246699 0.323628C-0.149518 0.689245 -0.0577113 1.22009 0.444807 1.50837L29.0497 17.8205C29.5522 18.1088 30.2818 18.042 30.6781 17.6764C31.0743 17.3108 30.9825 16.7799 30.48 16.4916L25.3968 13.5948C27.3102 12.1675 28.6052 10.5679 29.2575 9.43241C29.4169 9.15468 29.4169 8.84532 29.2575 8.56759C28.5375 7.31254 27.0251 5.48445 24.7638 3.9587C22.4928 2.41889 19.3666 1.12517 15.4624 1.12517C12.167 1.12517 9.42249 2.04976 7.28196 3.26263L1.87505 0.179491ZM10.7803 5.25594C12.0124 4.43682 13.6601 3.93761 15.4624 3.93761C19.3037 3.93761 22.4203 6.20514 22.4203 9C22.4203 9.87537 22.1159 10.698 21.5796 11.4152L19.7145 10.3535C20.1203 9.67498 20.2266 8.89805 19.9464 8.12814C19.4101 6.66919 17.6367 5.68835 15.6653 5.62859C15.3851 5.62156 15.2208 5.84304 15.3078 6.03991C15.4092 6.2649 15.4672 6.50396 15.4672 6.75357C15.4672 7.11215 15.3512 7.44964 15.1483 7.74846L10.7851 5.25946L10.7803 5.25594ZM18.0233 13.7073C17.2309 13.9358 16.3659 14.0624 15.4624 14.0624C11.621 14.0624 8.50443 11.7949 8.50443 9C8.50443 8.75743 8.52859 8.52189 8.57208 8.28986L4.01559 5.67781C2.91391 6.72192 2.12631 7.76253 1.66728 8.56759C1.50783 8.84532 1.50783 9.15468 1.66728 9.43241C2.38723 10.6875 3.89962 12.5155 6.16096 14.0413C8.43195 15.5811 11.5582 16.8748 15.4624 16.8748C17.772 16.8748 19.8063 16.4213 21.5603 15.7323L18.0233 13.7073Z" fill="#969696"/>
</svg>
