<?xml version="1.0" encoding="UTF-8"?>
<svg id="Layer_1" data-name="Layer 1" xmlns="http://www.w3.org/2000/svg" viewBox="0 0 1920 1080">
  <defs>
    <style>
      .cls-1, .cls-2, .cls-3 {
        fill: #fff;
      }

      .cls-2 {
        font-size: 86.36px;
      }

      .cls-2, .cls-3 {
        font-family: OPTIColumna-Solid, OPTIColumna;
      }

      .cls-4 {
        letter-spacing: 0em;
      }

      .cls-3 {
        font-size: 98.93px;
      }

      .cls-5 {
        letter-spacing: 0em;
      }
    </style>
  </defs>
  <path class="cls-1" d="m775.01,298.26c-.25-10.24.42-20.45.76-30.67.08-2.38.73-3.96,3.44-3.81,24.66,1.33,49.72-1.06,73.77,6.37,61.2,18.89,98.52,59.75,111.21,122.65,2.61,12.95,2.88,26.15,1.91,39.39-.62,8.58-.29,17.22-.35,25.84-.02,2.54-.45,4.63-3.7,4.49-24.82-1.06-49.75.27-74.2-6.23-57.32-15.23-103.37-66.8-111.32-125.41-.74-5.47-1.55-10.92-1.54-16.46.02-5.38,0-10.77,0-16.16"/>
  <path class="cls-1" d="m977.74,455.93c.41-2,2.16-2.97,3.43-4.25,12.95-12.94,26.16-25.61,35.85-41.4,14.6-23.77,22.8-49.41,23.99-77.38,1.45-34.32-7.1-65.79-25.91-94.49-1.89-2.88-1.43-4.3,1.58-5.87,16.27-8.5,33.68-14.32,50.5-21.51,1.9-.81,3.44-.69,4.27,1.45,9,23.44,20.62,45.98,23.83,71.39,5.37,42.56-4.89,80.95-30.76,115.04-16.99,22.39-38.96,38.45-64.98,48.98-6.49,2.63-12.98,5.25-19.47,7.86-.71.28-1.42.9-2.33.17"/>
  <path class="cls-1" d="m977.43,446.68c2.79-6.97,5.67-13.91,8.35-20.92,6.35-16.58,10.26-33.63,10.82-51.49,1.55-49.21-15.99-90.43-51.48-124.2-6.64-6.32-14-11.8-21.79-16.64-2.32-1.44-2.52-2.44-.74-4.61,11.34-13.75,24.57-25.66,36.91-38.43,1.48-1.54,2.76-1.83,4.41-.17,14.76,14.9,30.97,28.41,43.24,45.68,16.26,22.9,26.03,48.2,28.25,76.28,3.78,47.97-11.61,88.93-45.22,123.19-3.93,4.01-7.92,7.97-11.89,11.95-.28-.21-.57-.41-.85-.62"/>
  <path class="cls-1" d="m971.46,445.27c0-8.2-.1-16.4.02-24.59.53-36.76-10.41-69.8-32.78-98.86-24.01-31.19-55.46-50.86-94.07-58.93-6.77-1.42-7.01-1.45-4.54-7.85,5.42-14.07,11.11-28.03,16.67-42.05.75-1.88,1.79-3.02,3.97-2.09,22.51,9.56,46.21,16.61,66.29,31.3,35.58,26.04,56.72,60.86,63.15,104.5,4.12,28.01.06,54.98-10.73,81.04-2.45,5.92-4.82,11.88-7.22,17.83-.25-.1-.5-.19-.75-.28"/>
  <path class="cls-1" d="m981.55,460.69c6.59-2.69,13.19-5.33,19.75-8.07,50.58-21.12,82.72-58.33,96.21-111.35,6.07-23.86,5.6-48,.28-72.03-1.12-5.09-.94-5.3,4.04-5.59,14.78-.86,29.56-1.36,44.36-1.69,3.18-.07,4.68.82,4.69,4.26.09,15.21,1.3,30.39.91,45.61-.92,36.25-13.31,68.18-36.83,95.63-25.1,29.3-57.02,46.66-95.16,52.35-12.61,1.88-25.37,2.08-38.1,1.96-.05-.36-.11-.72-.16-1.08"/>
  <text class="cls-3" transform="translate(754.49 568.03)"><tspan class="cls-5" x="0" y="0">Global</tspan><tspan x="216.95" y="0">b</tspan></text>
  <text class="cls-3" transform="translate(1033.12 568.03)"><tspan x="0" y="0">a</tspan></text>
  <text class="cls-3" transform="translate(1114.05 568.03)"><tspan x="0" y="0">l</tspan></text>
  <text class="cls-3" transform="translate(758.76 673.88)"><tspan x="0" y="0">I</tspan></text>
  <text class="cls-3" transform="translate(790.24 673.88)"><tspan x="0" y="0">m</tspan></text>
  <text class="cls-3" transform="translate(881 673.88)"><tspan class="cls-4" x="0" y="0">p</tspan><tspan x="59.65" y="0">a</tspan></text>
  <text class="cls-3" transform="translate(1021.7 673.88)"><tspan x="0" y="0">c</tspan></text>
  <text class="cls-3" transform="translate(1095.78 673.88)"><tspan x="0" y="0">t</tspan></text>
  <text class="cls-2" transform="translate(755.3 769.92)"><tspan x="0" y="0">BUSINESS</tspan></text>
  <text class="cls-2" transform="translate(657.96 863.71)"><tspan x="0" y="0">COMMUNITY</tspan></text>
</svg>