<svg width="64" height="64" viewBox="0 0 64 64" fill="none" xmlns="http://www.w3.org/2000/svg">
<g clip-path="url(#clip0_426_1125)">
<circle cx="32" cy="32" r="32" fill="#E7E7E7"/>
<path d="M47.4339 28.8991H46.125V28.8334H31.5V35.1667H40.6837C39.3439 38.8535 35.7437 41.5 31.5 41.5C26.1156 41.5 21.75 37.2464 21.75 32C21.75 26.7536 26.1156 22.5 31.5 22.5C33.9854 22.5 36.2466 23.4136 37.9683 24.9059L42.5646 20.4274C39.6624 17.792 35.7803 16.1667 31.5 16.1667C22.5259 16.1667 15.25 23.2561 15.25 32C15.25 40.744 22.5259 47.8334 31.5 47.8334C40.4741 47.8334 47.75 40.744 47.75 32C47.75 30.9384 47.6379 29.9021 47.4339 28.8991Z" fill="#FFC107"/>
<path d="M17.1236 24.6304L22.4625 28.4454C23.9072 24.9605 27.4058 22.5 31.5 22.5C33.9854 22.5 36.2466 23.4136 37.9683 24.9059L42.5646 20.4274C39.6623 17.792 35.7802 16.1667 31.5 16.1667C25.2583 16.1667 19.8455 19.6001 17.1236 24.6304Z" fill="#FF3D00"/>
<path d="M31.5 47.8333C35.6974 47.8333 39.5113 46.2682 42.3948 43.723L37.3654 39.5762C35.6791 40.8258 33.6186 41.5016 31.5 41.5C27.2734 41.5 23.6846 38.874 22.3326 35.2094L17.0334 39.1875C19.7228 44.3152 25.1844 47.8333 31.5 47.8333Z" fill="#4CAF50"/>
<path d="M47.4339 28.899H46.125V28.8333H31.5V35.1666H40.6837C40.0428 36.9213 38.8884 38.4546 37.363 39.577L37.3654 39.5754L42.3948 43.7222C42.0389 44.0373 47.75 39.9166 47.75 32C47.75 30.9384 47.6379 29.9021 47.4339 28.899Z" fill="#1976D2"/>
</g>
<defs>
<clipPath id="clip0_426_1125">
<rect width="64" height="64" fill="white"/>
</clipPath>
</defs>
</svg>
